<?xml version="1.0"?>
<svg xmlns="http://www.w3.org/2000/svg" viewBox="0 0 452 120" width="452" height="120" role="img" aria-label="CTru-AI — Collaborative and Trustworthy AI">
<title>CTru-AI</title>

<rect x="0" y="0" width="452" height="120" fill="#16243D"></rect>
<g transform="translate(10 10)"><circle cx="50" cy="50" r="42" fill="none" stroke="#ffffff" stroke-width="1.4" stroke-opacity="0.3" stroke-dasharray="2.6 3.4"></circle><circle cx="50" cy="50" r="49" fill="none" stroke="#ffffff" stroke-width="1.4" stroke-opacity="0.16" stroke-dasharray="2.6 3.4"></circle><circle cx="50" cy="50" r="34.4" fill="none" stroke="#ffffff" stroke-width="1.3" stroke-opacity="0.9"></circle><path d="M50,17 L78.58,33.5 L59.41,48.68 L53.56,41.19 Z" fill="#ffffff" fill-opacity="0.5" stroke="#0E1B2E" stroke-width="0.6" stroke-opacity="0.55"></path><path d="M78.58,33.5 L78.58,66.5 L55.85,57.49 L59.41,48.68 Z" fill="#ED1B2F" fill-opacity="0.92" stroke="#0E1B2E" stroke-width="0.6" stroke-opacity="0.55"></path><path d="M78.58,66.5 L50,83 L46.44,58.81 L55.85,57.49 Z" fill="#ffffff" fill-opacity="0.5" stroke="#0E1B2E" stroke-width="0.6" stroke-opacity="0.55"></path><path d="M50,83 L21.42,66.5 L40.59,51.32 L46.44,58.81 Z" fill="#ffffff" fill-opacity="0.5" stroke="#0E1B2E" stroke-width="0.6" stroke-opacity="0.55"></path><path d="M21.42,66.5 L21.42,33.5 L44.15,42.51 L40.59,51.32 Z" fill="#ffffff" fill-opacity="0.5" stroke="#0E1B2E" stroke-width="0.6" stroke-opacity="0.55"></path><path d="M21.42,33.5 L50,17 L53.56,41.19 L44.15,42.51 Z" fill="#ffffff" fill-opacity="0.5" stroke="#0E1B2E" stroke-width="0.6" stroke-opacity="0.55"></path></g>
<text x="132" y="64" text-anchor="start" font-family="&#39;Hanken Grotesk&#39;,sans-serif" font-size="54" letter-spacing="-0.54" font-weight="800" fill="#ffffff"><tspan>CTru</tspan><tspan fill="#ffffff" fill-opacity="0.32" font-weight="500" dx="1.08">-</tspan><tspan dx="1.08" fill="#ED1B2F" font-weight="800">AI</tspan></text>
<text x="134" y="91" font-family="&#39;Hanken Grotesk&#39;,sans-serif" font-size="10.5" letter-spacing="1.85" font-weight="700" fill="rgba(255,255,255,0.6)">COLLABORATIVE &amp; TRUSTWORTHY AI</text>
</svg>